HIERARCHY
ROOT SpineBase
{
  OFFSET 0.000000 0.000000 0.000000
  CHANNELS 6 Xposition Yposition Zposition Zrotation Xrotation Yrotation
  JOINT SpineMid
  {
    OFFSET -0.000000 31.202979 0.000000
    CHANNELS 3 Zrotation Xrotation Yrotation
    JOINT SpineShoulder
    {
      OFFSET -0.096669 23.105710 -0.649805
      CHANNELS 3 Zrotation Xrotation Yrotation
      JOINT Neck
      {
        OFFSET -0.086219 7.616041 -0.532431
        CHANNELS 3 Zrotation Xrotation Yrotation
        JOINT Head
        {
          OFFSET -3.913216 12.947566 2.051833
          CHANNELS 3 Zrotation Xrotation Yrotation
          End Site
          {
            OFFSET 0 0 0
          }
        }
      }
      JOINT ShoulderLeft
      {
        OFFSET -13.373082 -4.637882 13.109906
        CHANNELS 3 Zrotation Xrotation Yrotation
        JOINT ElbowLeft
        {
          OFFSET -3.049311 -26.150162 -0.030623
          CHANNELS 3 Zrotation Xrotation Yrotation
          JOINT WristLeft
          {
            OFFSET 3.314252 -19.039547 -14.235362
            CHANNELS 3 Zrotation Xrotation Yrotation
            JOINT HandLeft
            {
              OFFSET 1.255759 -3.959531 -3.082972
              CHANNELS 3 Zrotation Xrotation Yrotation
              JOINT HandTipLeft
              {
                OFFSET 2.271462 -3.068817 -2.649164
                CHANNELS 3 Zrotation Xrotation Yrotation
                End Site
                {
                  OFFSET 0 0 0
                }
              }
              JOINT ThumbLeft
              {
                OFFSET 1.650485 2.346893 -5.671402
                CHANNELS 3 Zrotation Xrotation Yrotation
                End Site
                {
                  OFFSET 0 0 0
                }
              }
            }
          }
        }
      }
      JOINT ShoulderRight
      {
        OFFSET 10.727032 -3.795052 -12.053768
        CHANNELS 3 Zrotation Xrotation Yrotation
        JOINT ElbowRight
        {
          OFFSET 3.465873 -22.413253 -6.401874
          CHANNELS 3 Zrotation Xrotation Yrotation
          JOINT WristRight
          {
            OFFSET -14.136659 -18.358782 0.694820
            CHANNELS 3 Zrotation Xrotation Yrotation
            JOINT HandRight
            {
              OFFSET -2.863865 -5.829691 5.027026
              CHANNELS 3 Zrotation Xrotation Yrotation
              JOINT HandTipRight
              {
                OFFSET -0.888961 -3.005213 0.227243
                CHANNELS 3 Zrotation Xrotation Yrotation
                End Site
                {
                  OFFSET 0 0 0
                }
              }
              JOINT ThumbRight
              {
                OFFSET 3.752733 -6.316720 -3.611725
                CHANNELS 3 Zrotation Xrotation Yrotation
                End Site
                {
                  OFFSET 0 0 0
                }
              }
            }
          }
        }
      }
    }
  }
  JOINT HipLeft
  {
    OFFSET -6.015942 -0.587404 1.499884
    CHANNELS 3 Zrotation Xrotation Yrotation
    JOINT KneeLeft
    {
      OFFSET 5.835814 -35.183715 9.150265
      CHANNELS 3 Zrotation Xrotation Yrotation
      JOINT AnkleLeft
      {
        OFFSET 14.333244 -34.391328 7.484289
        CHANNELS 3 Zrotation Xrotation Yrotation
        JOINT FootLeft
        {
          OFFSET -1.004945 -8.753136 -5.238914
          CHANNELS 3 Zrotation Xrotation Yrotation
          End Site
          {
            OFFSET 0 0 0
          }
        }
      }
    }
  }
  JOINT HipRight
  {
    OFFSET 4.784593 1.805411 -8.559228
    CHANNELS 3 Zrotation Xrotation Yrotation
    JOINT KneeRight
    {
      OFFSET 6.480173 -33.771421 -2.388315
      CHANNELS 3 Zrotation Xrotation Yrotation
      JOINT AnkleRight
      {
        OFFSET 11.325171 -37.073529 11.552654
        CHANNELS 3 Zrotation Xrotation Yrotation
        JOINT FootRight
        {
          OFFSET -8.070183 -4.567602 -10.445935
          CHANNELS 3 Zrotation Xrotation Yrotation
          End Site
          {
            OFFSET 0 0 0
          }
        }
      }
    }
  }
}
MOTION
Frames: 9
Frame Time: 0.033333
63.979867 78.971239 342.100298 0.243537 -2.604313 44.152374 0.185329 -0.250578 -44.148930 0.135705 0.025470 0.010531 -0.771303 1.797292 -0.237641 0.000000 0.000000 0.000000 0.773973 0.444083 0.211856 -6.356476 -4.656304 2.256000 7.891260 17.606029 -1.650839 -17.853292 -7.374062 12.153304 0.000000 0.000000 0.000000 0.000000 0.000000 0.000000 -1.515796 0.592420 -0.057723 6.255229 0.732374 1.188728 -8.800670 -9.553475 1.048975 -39.083586 9.681885 2.259815 0.000000 0.000000 0.000000 0.000000 0.000000 0.000000 0.253678 3.074013 -44.597969 -3.950255 -3.914477 -2.693869 -22.305335 16.132153 20.865044 0.000000 0.000000 0.000000 -0.005923 -1.097743 -44.885660 -4.142756 4.419600 0.331070 7.783060 -6.438109 -0.150647 0.000000 0.000000 0.000000
63.856829 78.977775 342.287465 0.266615 -2.701825 43.863527 0.209285 -0.282133 -43.859071 0.156599 -0.082977 0.012678 -0.888720 1.956824 -0.246889 0.000000 0.000000 0.000000 0.677373 0.402589 0.239846 -6.195957 -4.319012 2.154793 7.898847 15.139686 -2.439222 -17.543598 -5.934205 12.860807 0.000000 0.000000 0.000000 0.000000 0.000000 0.000000 -1.468896 0.531453 -0.140573 6.650873 0.942680 1.314279 -10.161024 -9.100518 0.131139 -37.464828 8.003043 2.440355 0.000000 0.000000 0.000000 0.000000 0.000000 0.000000 0.466758 3.087981 -44.258740 -4.122190 -3.875330 -2.705372 -19.251453 12.971956 18.697256 0.000000 0.000000 0.000000 0.172148 -0.996245 -44.583746 -4.257357 4.425324 0.338713 7.595530 -6.185039 -0.337082 0.000000 0.000000 0.000000
63.757986 78.969819 342.450907 0.293812 -2.855250 43.580401 0.186231 -0.409779 -43.575038 0.156746 -0.224626 0.014081 -1.079768 1.973757 -0.342086 0.000000 0.000000 0.000000 0.625550 0.488165 0.272660 -6.024126 -4.025080 1.973486 8.623575 13.687205 -3.589548 -16.529898 -3.422929 13.805369 0.000000 0.000000 0.000000 0.000000 0.000000 0.000000 -1.481774 0.833281 -0.176753 7.280691 0.929345 1.463121 -11.102766 -8.714583 -0.247939 -36.930337 5.876050 2.337055 0.000000 0.000000 0.000000 0.000000 0.000000 0.000000 0.599482 3.093387 -43.952888 -4.257813 -3.682687 -2.661001 -16.290598 7.741122 16.731679 0.000000 0.000000 0.000000 0.410872 -0.787320 -44.273843 -4.313422 4.324128 0.320061 6.840774 -5.309269 -0.346729 0.000000 0.000000 0.000000
63.665427 78.965653 342.635647 0.300051 -3.130594 43.196161 0.119890 -0.566142 -43.192174 0.155096 -0.370849 0.012611 -1.165021 1.946324 -0.513105 0.000000 0.000000 0.000000 0.658903 0.716713 0.308481 -5.784758 -3.744279 1.688702 9.751600 11.918554 -5.218060 -17.940087 -3.324749 14.862682 0.000000 0.000000 0.000000 0.000000 0.000000 0.000000 -1.368386 1.040818 -0.280493 7.417754 1.232790 1.607572 -11.705699 -8.656953 -0.526695 -36.739005 4.938936 2.445381 0.000000 0.000000 0.000000 0.000000 0.000000 0.000000 0.806026 3.138995 -43.551367 -4.417243 -3.350634 -2.565818 -19.319136 11.484156 18.525844 0.000000 0.000000 0.000000 0.746889 -0.547274 -43.875223 -4.399286 4.309579 0.332186 5.607276 -3.972310 -0.211762 0.000000 0.000000 0.000000
63.615085 78.937050 342.792694 0.331500 -3.490244 42.730017 0.055010 -0.751789 -42.726799 0.183093 -0.497784 0.013616 -1.391567 1.843031 -0.719154 0.000000 0.000000 0.000000 0.753737 1.046928 0.331999 -5.698361 -3.475063 1.421139 10.881148 10.363590 -6.759022 -17.593097 -3.385613 14.197081 0.000000 0.000000 0.000000 0.000000 0.000000 0.000000 -1.284806 1.209342 -0.420911 7.123932 1.615191 1.806977 -12.372750 -7.717211 -1.551594 -36.390750 2.802504 2.596118 0.000000 0.000000 0.000000 0.000000 0.000000 0.000000 0.984719 3.222069 -43.081859 -4.599623 -2.910782 -2.440985 -13.115603 2.312515 14.594029 0.000000 0.000000 0.000000 1.163388 -0.150993 -43.380003 -4.496500 4.293578 0.340884 4.007985 -2.317404 0.107732 0.000000 0.000000 0.000000
63.554235 78.853186 342.952712 0.343004 -3.899521 41.976242 0.007481 -0.899985 -41.975571 0.113625 -0.613251 0.009279 -1.527400 1.609471 -0.951282 0.000000 0.000000 0.000000 0.789919 0.830072 0.440976 -5.581426 -3.961839 0.978841 9.711060 13.097170 -5.302694 -12.021751 -4.952810 8.164156 0.000000 0.000000 0.000000 0.000000 0.000000 0.000000 -1.162199 1.203423 -0.554521 6.663174 2.093954 2.053412 -12.297766 -7.408142 -1.911834 -36.636036 1.198496 2.615540 0.000000 0.000000 0.000000 0.000000 0.000000 0.000000 1.195293 3.274227 -42.323871 -4.814656 -2.373146 -2.287120 -13.488853 2.367511 14.636405 0.000000 0.000000 0.000000 1.634939 0.228884 -42.612567 -4.653981 4.430276 0.400807 2.101110 -0.510915 0.618124 0.000000 0.000000 0.000000
63.483980 78.913165 343.192269 0.280382 -4.495965 41.033685 -0.282360 -1.317919 -41.046165 -0.019217 -0.923440 -0.004994 -1.271021 2.411596 -1.125863 0.000000 0.000000 0.000000 1.465229 2.153292 0.398687 -6.192844 -3.178970 1.214340 11.215652 8.156821 -7.949522 -10.499215 -1.967015 7.932035 0.000000 0.000000 0.000000 0.000000 0.000000 0.000000 -0.730081 1.904442 -0.737893 6.074440 2.732753 2.262657 -12.418985 -6.665235 -2.574617 -37.822577 -0.895935 2.573741 0.000000 0.000000 0.000000 0.000000 0.000000 0.000000 1.572919 3.572316 -41.391451 -4.866866 -1.936039 -2.116459 -17.584667 8.144152 16.847032 0.000000 0.000000 0.000000 2.581998 0.914193 -41.621365 -5.038446 4.206736 0.338530 4.034234 -2.478372 -0.383738 0.000000 0.000000 0.000000
63.442873 79.061959 343.377162 0.213726 -4.995753 39.770875 -0.030726 -1.028939 -39.788430 -0.227067 -0.541158 -0.013480 -1.721589 1.739082 -1.089284 0.000000 0.000000 0.000000 2.456671 2.330970 0.295646 -7.011193 -1.278932 1.835546 13.805196 -1.028713 -12.320550 -12.911011 0.851633 10.438454 0.000000 0.000000 0.000000 0.000000 0.000000 0.000000 -0.026313 1.255737 -0.946291 5.322551 3.184333 2.387587 -12.678389 -6.460429 -3.128246 -35.615100 -2.195475 2.809235 0.000000 0.000000 0.000000 0.000000 0.000000 0.000000 1.766005 3.800156 -40.161404 -4.851563 -1.531700 -1.959128 -18.101780 10.009683 16.980825 0.000000 0.000000 0.000000 2.986631 1.483771 -40.347171 -5.028005 4.417101 0.399926 4.178357 -2.768524 -0.823588 0.000000 0.000000 0.000000
63.293571 79.287479 343.580355 0.142727 -5.611677 38.878026 0.202335 -0.574169 -38.901226 -0.338680 -0.018684 -0.020923 -2.828591 2.118093 -0.530635 0.000000 0.000000 0.000000 3.510107 2.930439 0.112826 -7.965584 1.235685 2.740814 16.380651 -18.117019 -18.956157 -20.406174 7.115009 19.778530 0.000000 0.000000 0.000000 0.000000 0.000000 0.000000 1.142140 -0.084376 -1.384593 4.141021 4.303685 2.613300 -13.214580 -5.990503 -3.959173 -32.123930 -3.093385 3.266957 0.000000 0.000000 0.000000 0.000000 0.000000 0.000000 2.312267 3.924886 -39.242327 -5.365850 -1.002228 -1.869105 -17.341199 10.481938 16.379745 0.000000 0.000000 0.000000 3.591814 2.047305 -39.468074 -5.132068 4.563392 0.467264 4.228006 -2.891527 -1.371419 0.000000 0.000000 0.000000
